<?xml version="1.0" encoding="UTF-8"?>
<!DOCTYPE svg
  PUBLIC '-//W3C//DTD SVG 1.1//EN'
  'http://www.w3.org/Graphics/SVG/1.1/DTD/svg11.dtd'>
<svg height="23.764mm" version="1.1" width="46.660mm" xmlns="http://www.w3.org/2000/svg">
    <!--Autogenerated with python-barcode 0.15.1-->
    <g id="barcode_group">
        <rect height="100%" style="fill:white" width="100%"/>
        <rect height="15.000mm" style="fill:black;" width="0.330mm" x="6.500mm" y="1.000mm"/>
        <rect height="15.000mm" style="fill:black;" width="0.330mm" x="7.160mm" y="1.000mm"/>
        <rect height="15.000mm" style="fill:black;" width="0.660mm" x="8.150mm" y="1.000mm"/>
        <rect height="15.000mm" style="fill:black;" width="0.330mm" x="9.470mm" y="1.000mm"/>
        <rect height="15.000mm" style="fill:black;" width="0.330mm" x="10.130mm" y="1.000mm"/>
        <rect height="15.000mm" style="fill:black;" width="0.660mm" x="11.450mm" y="1.000mm"/>
        <rect height="15.000mm" style="fill:black;" width="0.330mm" x="12.440mm" y="1.000mm"/>
        <rect height="15.000mm" style="fill:black;" width="1.320mm" x="13.100mm" y="1.000mm"/>
        <rect height="15.000mm" style="fill:black;" width="0.330mm" x="15.080mm" y="1.000mm"/>
        <rect height="15.000mm" style="fill:black;" width="0.660mm" x="16.070mm" y="1.000mm"/>
        <rect height="15.000mm" style="fill:black;" width="0.660mm" x="17.720mm" y="1.000mm"/>
        <rect height="15.000mm" style="fill:black;" width="0.330mm" x="18.710mm" y="1.000mm"/>
        <rect height="15.000mm" style="fill:black;" width="0.660mm" x="20.030mm" y="1.000mm"/>
        <rect height="15.000mm" style="fill:black;" width="0.330mm" x="21.020mm" y="1.000mm"/>
        <rect height="15.000mm" style="fill:black;" width="0.330mm" x="21.680mm" y="1.000mm"/>
        <rect height="15.000mm" style="fill:black;" width="0.330mm" x="22.340mm" y="1.000mm"/>
        <rect height="15.000mm" style="fill:black;" width="0.660mm" x="23.000mm" y="1.000mm"/>
        <rect height="15.000mm" style="fill:black;" width="0.660mm" x="24.320mm" y="1.000mm"/>
        <rect height="15.000mm" style="fill:black;" width="0.660mm" x="25.310mm" y="1.000mm"/>
        <rect height="15.000mm" style="fill:black;" width="0.660mm" x="26.630mm" y="1.000mm"/>
        <rect height="15.000mm" style="fill:black;" width="0.330mm" x="27.620mm" y="1.000mm"/>
        <rect height="15.000mm" style="fill:black;" width="0.330mm" x="29.270mm" y="1.000mm"/>
        <rect height="15.000mm" style="fill:black;" width="0.330mm" x="29.930mm" y="1.000mm"/>
        <rect height="15.000mm" style="fill:black;" width="0.990mm" x="30.590mm" y="1.000mm"/>
        <rect height="15.000mm" style="fill:black;" width="0.330mm" x="32.240mm" y="1.000mm"/>
        <rect height="15.000mm" style="fill:black;" width="0.990mm" x="32.900mm" y="1.000mm"/>
        <rect height="15.000mm" style="fill:black;" width="0.330mm" x="34.550mm" y="1.000mm"/>
        <rect height="15.000mm" style="fill:black;" width="0.330mm" x="36.200mm" y="1.000mm"/>
        <rect height="15.000mm" style="fill:black;" width="0.330mm" x="36.860mm" y="1.000mm"/>
        <rect height="15.000mm" style="fill:black;" width="0.330mm" x="38.510mm" y="1.000mm"/>
        <rect height="15.000mm" style="fill:black;" width="0.330mm" x="39.170mm" y="1.000mm"/>
        <rect height="15.000mm" style="fill:black;" width="0.330mm" x="39.830mm" y="1.000mm"/>
        <text style="fill:black;font-size:10pt;text-anchor:middle;" x="23.330mm" y="21.000mm">01462001134433</text>
    </g>
</svg>
