<?xml version="1.0" encoding="UTF-8"?>
<!DOCTYPE svg
  PUBLIC '-//W3C//DTD SVG 1.1//EN'
  'http://www.w3.org/Graphics/SVG/1.1/DTD/svg11.dtd'>
<svg height="23.764mm" version="1.1" width="44.350mm" xmlns="http://www.w3.org/2000/svg">
    <!--Autogenerated with python-barcode 0.15.1-->
    <g id="barcode_group">
        <rect height="100%" style="fill:white" width="100%"/>
        <rect height="15.000mm" style="fill:black;" width="0.330mm" x="6.500mm" y="1.000mm"/>
        <rect height="15.000mm" style="fill:black;" width="0.330mm" x="7.160mm" y="1.000mm"/>
        <rect height="15.000mm" style="fill:black;" width="0.660mm" x="7.820mm" y="1.000mm"/>
        <rect height="15.000mm" style="fill:black;" width="0.330mm" x="9.470mm" y="1.000mm"/>
        <rect height="15.000mm" style="fill:black;" width="0.330mm" x="11.120mm" y="1.000mm"/>
        <rect height="15.000mm" style="fill:black;" width="0.330mm" x="11.780mm" y="1.000mm"/>
        <rect height="15.000mm" style="fill:black;" width="0.990mm" x="12.440mm" y="1.000mm"/>
        <rect height="15.000mm" style="fill:black;" width="0.660mm" x="13.760mm" y="1.000mm"/>
        <rect height="15.000mm" style="fill:black;" width="0.660mm" x="14.750mm" y="1.000mm"/>
        <rect height="15.000mm" style="fill:black;" width="0.990mm" x="15.740mm" y="1.000mm"/>
        <rect height="15.000mm" style="fill:black;" width="0.330mm" x="17.390mm" y="1.000mm"/>
        <rect height="15.000mm" style="fill:black;" width="0.990mm" x="18.050mm" y="1.000mm"/>
        <rect height="15.000mm" style="fill:black;" width="0.660mm" x="19.370mm" y="1.000mm"/>
        <rect height="15.000mm" style="fill:black;" width="0.660mm" x="20.690mm" y="1.000mm"/>
        <rect height="15.000mm" style="fill:black;" width="0.330mm" x="21.680mm" y="1.000mm"/>
        <rect height="15.000mm" style="fill:black;" width="0.330mm" x="22.340mm" y="1.000mm"/>
        <rect height="15.000mm" style="fill:black;" width="0.660mm" x="23.000mm" y="1.000mm"/>
        <rect height="15.000mm" style="fill:black;" width="0.660mm" x="23.990mm" y="1.000mm"/>
        <rect height="15.000mm" style="fill:black;" width="0.330mm" x="25.310mm" y="1.000mm"/>
        <rect height="15.000mm" style="fill:black;" width="0.330mm" x="26.960mm" y="1.000mm"/>
        <rect height="15.000mm" style="fill:black;" width="0.330mm" x="27.620mm" y="1.000mm"/>
        <rect height="15.000mm" style="fill:black;" width="0.990mm" x="28.280mm" y="1.000mm"/>
        <rect height="15.000mm" style="fill:black;" width="0.330mm" x="29.930mm" y="1.000mm"/>
        <rect height="15.000mm" style="fill:black;" width="0.990mm" x="30.920mm" y="1.000mm"/>
        <rect height="15.000mm" style="fill:black;" width="0.660mm" x="32.240mm" y="1.000mm"/>
        <rect height="15.000mm" style="fill:black;" width="0.660mm" x="33.230mm" y="1.000mm"/>
        <rect height="15.000mm" style="fill:black;" width="0.330mm" x="34.550mm" y="1.000mm"/>
        <rect height="15.000mm" style="fill:black;" width="0.330mm" x="35.210mm" y="1.000mm"/>
        <rect height="15.000mm" style="fill:black;" width="0.330mm" x="36.860mm" y="1.000mm"/>
        <rect height="15.000mm" style="fill:black;" width="0.330mm" x="37.520mm" y="1.000mm"/>
        <text style="fill:black;font-size:10pt;text-anchor:middle;" x="22.175mm" y="21.000mm">4567891234526</text>
    </g>
</svg>
